<?xml version="1.0" standalone="no"?>
<!DOCTYPE svg PUBLIC "-//W3C//DTD SVG 1.1//EN"
  "http://www.w3.org/Graphics/SVG/1.1/DTD/svg11.dtd">
<svg width="566.92px" height="566.92px" version="1.1"
    xmlns="http://www.w3.org/2000/svg"
    xmlns:xlink="http://www.w3.org/1999/xlink">
<desc>Veusz output document</desc>
<defs>
<clipPath id="c0">
<path d="m0,0l566.92,0l0,566.92l-566.92,0l0,-566.92"/>
</clipPath>
<clipPath id="c1">
<path d="m64.25,7.55l495.11,0l0,495.11l-495.11,0l0,-495.11"/>
</clipPath>
</defs>
<g stroke-linejoin="bevel" stroke-linecap="square" stroke="#000000" fill-rule="evenodd">
<g clip-path="url(#c0)">
<g fill="#ffffff" stroke-width="0.66">
<path d="m64.25,7.55l495.11,0l0,495.11l-495.11,0l0,-495.11"/>
</g>
</g>
<g clip-path="url(#c1)">
<g fill="#008000" stroke-width="0.66">
<path d="m92.04,502.67l3.34,0l0,-8.38l-3.34,0l0,8.38m49.51,0l3.34,0l0,-83.43l-3.34,0l0,83.43m49.51,0l3.34,0l0,-43.21l-3.34,0l0,43.21m49.51,0l3.34,0l0,-174.18l-3.34,0l0,174.18m49.51,0l3.34,0l0,-57.47l-3.34,0l0,57.47m49.51,0l3.34,0l0,-150.48l-3.34,0l0,150.48m49.51,0l3.34,0l0,-236.53l-3.34,0l0,236.53m49.51,0l3.34,0l0,-341.59l-3.34,0l0,341.59m49.51,0l3.34,0l0,-85.3l-3.34,0l0,85.3m49.51,0l3.34,0l0,-169.2l-3.34,0l0,169.2"/>
</g>
<g fill="#0000ff" stroke-width="0.66">
<path d="m96.49,502.67l3.34,0l0,-8.52l-3.34,0l0,8.52m49.51,0l3.34,0l0,-89.83l-3.34,0l0,89.83m49.51,0l3.34,0l0,-113.8l-3.34,0l0,113.8m49.51,0l3.34,0l0,-21.22l-3.34,0l0,21.22m49.51,0l3.34,0l0,-119.14l-3.34,0l0,119.14m49.51,0l3.34,0l0,-120.65l-3.34,0l0,120.65m49.51,0l3.34,0l0,-237.88l-3.34,0l0,237.88m49.51,0l3.34,0l0,-217.91l-3.34,0l0,217.91m49.51,0l3.34,0l0,-33.68l-3.34,0l0,33.68m49.51,0l3.34,0l0,-185.07l-3.34,0l0,185.07"/>
</g>
<g fill="#ff0000" stroke-width="0.66">
<path d="m100.95,502.67l3.34,0l0,-17.81l-3.34,0l0,17.81m49.51,0l3.34,0l0,-82.54l-3.34,0l0,82.54m49.51,0l3.34,0l0,-41.14l-3.34,0l0,41.14m49.51,0l3.34,0l0,-30.67l-3.34,0l0,30.67m49.51,0l3.34,0l0,-143.1l-3.34,0l0,143.1m49.51,0l3.34,0l0,-287.78l-3.34,0l0,287.78m49.51,0l3.34,0l0,-272.61l-3.34,0l0,272.61m49.51,0l3.34,0l0,-295.83l-3.34,0l0,295.83m49.51,0l3.34,0l0,-35.32l-3.34,0l0,35.32m49.51,0l3.34,0l0,-452.82l-3.34,0l0,452.82"/>
</g>
<g fill="#00ffff" stroke-width="0.66">
<path d="m105.4,502.67l3.34,0l0,-35.39l-3.34,0l0,35.39m49.51,0l3.34,0l0,-81.07l-3.34,0l0,81.07m49.51,0l3.34,0l0,-98.5l-3.34,0l0,98.5m49.51,0l3.34,0l0,-94.98l-3.34,0l0,94.98m49.51,0l3.34,0l0,-212.21l-3.34,0l0,212.21m49.51,0l3.34,0l0,-111.8l-3.34,0l0,111.8m49.51,0l3.34,0l0,-72.7l-3.34,0l0,72.7m49.51,0l3.34,0l0,-266.68l-3.34,0l0,266.68m49.51,0l3.34,0l0,-390.06l-3.34,0l0,390.06m49.51,0l3.34,0l0,-209.61l-3.34,0l0,209.61"/>
</g>
<g fill="#ff00ff" stroke-width="0.66">
<path d="m109.86,502.67l3.34,0l0,-19.4l-3.34,0l0,19.4m49.51,0l3.34,0l0,-68.55l-3.34,0l0,68.55m49.51,0l3.34,0l0,-37.16l-3.34,0l0,37.16m49.51,0l3.34,0l0,-178.15l-3.34,0l0,178.15m49.51,0l3.34,0l0,-22.78l-3.34,0l0,22.78m49.51,0l3.34,0l0,-88.98l-3.34,0l0,88.98m49.51,0l3.34,0l0,-123.47l-3.34,0l0,123.47m49.51,0l3.34,0l0,-252.26l-3.34,0l0,252.26m49.51,0l3.34,0l0,-238.08l-3.34,0l0,238.08m49.51,0l3.34,0l0,-473.11l-3.34,0l0,473.11"/>
</g>
<g fill="#ffff00" stroke-width="0.66">
<path d="m114.32,502.67l3.34,0l0,-38.35l-3.34,0l0,38.35m49.51,0l3.34,0l0,-6.95l-3.34,0l0,6.95m49.51,0l3.34,0l0,-137.31l-3.34,0l0,137.31m49.51,0l3.34,0l0,-137.82l-3.34,0l0,137.82m49.51,0l3.34,0l0,-2.37l-3.34,0l0,2.37m49.51,0l3.34,0l0,-285.66l-3.34,0l0,285.66m49.51,0l3.34,0l0,-331.11l-3.34,0l0,331.11m49.51,0l3.34,0l0,-163.84l-3.34,0l0,163.84m49.51,0l3.34,0l0,-45.19l-3.34,0l0,45.19m49.51,0l0.77,0l0,-224.66l-0.77,0l0,224.66"/>
</g>
<g fill="#8b0000" stroke-width="0.66">
<path d="m118.77,502.67l3.34,0l0,-43.5l-3.34,0l0,43.5m49.51,0l3.34,0l0,-89.26l-3.34,0l0,89.26m49.51,0l3.34,0l0,-36.03l-3.34,0l0,36.03m49.51,0l3.34,0l0,-70.4l-3.34,0l0,70.4m49.51,0l3.34,0l0,-240.35l-3.34,0l0,240.35m49.51,0l3.34,0l0,-218.64l-3.34,0l0,218.64m49.51,0l3.34,0l0,-135.15l-3.34,0l0,135.15m49.51,0l3.34,0l0,-268.97l-3.34,0l0,268.97m49.51,0l3.34,0l0,-56.59l-3.34,0l0,56.59"/>
</g>
<g fill="#006400" stroke-width="0.66">
<path d="m123.23,502.67l3.34,0l0,-2.16l-3.34,0l0,2.16m49.51,0l3.34,0l0,-9.9l-3.34,0l0,9.9m49.51,0l3.34,0l0,-1.07l-3.34,0l0,1.07m49.51,0l3.34,0l0,-79.07l-3.34,0l0,79.07m49.51,0l3.34,0l0,-201.87l-3.34,0l0,201.87m49.51,0l3.34,0l0,-56.31l-3.34,0l0,56.31m49.51,0l3.34,0l0,-217.4l-3.34,0l0,217.4m49.51,0l3.34,0l0,-176.6l-3.34,0l0,176.6m49.51,0l3.34,0l0,-63.79l-3.34,0l0,63.79"/>
</g>
<g fill="#00008b" stroke-width="0.66">
<path d="m127.68,502.67l3.34,0l0,-26.61l-3.34,0l0,26.61m49.51,0l3.34,0l0,-64.41l-3.34,0l0,64.41m49.51,0l3.34,0l0,-78.5l-3.34,0l0,78.5m49.51,0l3.34,0l0,-135.42l-3.34,0l0,135.42m49.51,0l3.34,0l0,-189.65l-3.34,0l0,189.65m49.51,0l3.34,0l0,-81.67l-3.34,0l0,81.67m49.51,0l3.34,0l0,-335.7l-3.34,0l0,335.7m49.51,0l3.34,0l0,-40.96l-3.34,0l0,40.96m49.51,0l3.34,0l0,-230.31l-3.34,0l0,230.31"/>
</g>
<g fill="#8b008b" stroke-width="0.66">
<path d="m132.14,502.67l3.34,0l0,-41.29l-3.34,0l0,41.29m49.51,0l3.34,0l0,-68.1l-3.34,0l0,68.1m49.51,0l3.34,0l0,-30.4l-3.34,0l0,30.4m49.51,0l3.34,0l0,-68.76l-3.34,0l0,68.76m49.51,0l3.34,0l0,-75.75l-3.34,0l0,75.75m49.51,0l3.34,0l0,-264.01l-3.34,0l0,264.01m49.51,0l3.34,0l0,-273.68l-3.34,0l0,273.68m49.51,0l3.34,0l0,-232.17l-3.34,0l0,232.17m49.51,0l3.34,0l0,-278.18l-3.34,0l0,278.18"/>
</g>
</g>
<g clip-path="url(#c0)">
<g fill="none" stroke-linecap="butt" stroke-width="0.66">
<path d="M64.25,502.67l0,-495.11"/>
<path d="M64.25,502.67l4,0M64.25,477.92l4,0M64.25,453.16l4,0M64.25,428.4l4,0M64.25,403.65l4,0M64.25,378.89l4,0M64.25,354.14l4,0M64.25,329.38l4,0M64.25,304.62l4,0M64.25,279.87l4,0M64.25,255.11l4,0M64.25,230.36l4,0M64.25,205.6l4,0M64.25,180.85l4,0M64.25,156.09l4,0M64.25,131.33l4,0M64.25,106.58l4,0M64.25,81.82l4,0M64.25,57.07l4,0M64.25,32.31l4,0M64.25,7.55l4,0"/>
<path d="M64.25,502.67l8,0M64.25,403.65l8,0M64.25,304.62l8,0M64.25,205.6l8,0M64.25,106.58l8,0M64.25,7.55l8,0"/>
</g>
<g fill="none" stroke-width="0.1">
<path d="m50.52,502.95c0,-1.41,0.21,-2.62,0.63,-3.64c0.42,-1.01,0.99,-1.77,1.69,-2.27c0.54,-0.39,1.11,-0.59,1.69,-0.59c0.94,0,1.8,0.48,2.55,1.45c0.94,1.19,1.41,2.82,1.41,4.87c0,1.43,-0.2,2.65,-0.62,3.66c-0.41,1,-0.94,1.73,-1.58,2.18c-0.64,0.45,-1.26,0.68,-1.85,0.68c-1.18,0,-2.16,-0.69,-2.94,-2.09c-0.66,-1.17,-0.99,-2.59,-0.99,-4.24m1.78,0.22c0,1.7,0.21,3.09,0.63,4.17c0.34,0.9,0.86,1.36,1.55,1.36c0.32,0,0.66,-0.14,1.02,-0.44c0.35,-0.29,0.62,-0.78,0.8,-1.48c0.28,-1.04,0.42,-2.52,0.42,-4.42c0,-1.41,-0.14,-2.59,-0.43,-3.53c-0.21,-0.7,-0.5,-1.19,-0.84,-1.48c-0.24,-0.2,-0.55,-0.3,-0.9,-0.3c-0.41,0,-0.78,0.18,-1.1,0.55c-0.43,0.5,-0.73,1.29,-0.89,2.38c-0.15,1.08,-0.23,2.15,-0.23,3.2" fill="#000000" stroke="none" fill-opacity="1"/>
<path d="m49.02,407.67l-0.86,2.38l-7.3,0l0,-0.33c2.14,-1.96,3.66,-3.56,4.53,-4.8c0.87,-1.24,1.31,-2.37,1.31,-3.4c0,-0.78,-0.24,-1.43,-0.72,-1.93c-0.48,-0.5,-1.05,-0.75,-1.72,-0.75c-0.6,0,-1.15,0.17,-1.63,0.53c-0.48,0.35,-0.84,0.87,-1.07,1.56l-0.33,0c0.15,-1.12,0.54,-1.99,1.17,-2.59c0.63,-0.6,1.41,-0.9,2.36,-0.9c1,0,1.84,0.32,2.51,0.96c0.67,0.64,1,1.4,1,2.28c0,0.62,-0.14,1.25,-0.43,1.88c-0.45,0.98,-1.18,2.03,-2.19,3.13c-1.51,1.65,-2.46,2.65,-2.83,2.99l3.23,0c0.65,0,1.11,-0.02,1.38,-0.07c0.26,-0.04,0.5,-0.14,0.71,-0.29c0.21,-0.14,0.39,-0.36,0.55,-0.63l0.33,0m1.5,-3.73c0,-1.41,0.21,-2.62,0.63,-3.64c0.42,-1.01,0.99,-1.77,1.69,-2.27c0.54,-0.39,1.11,-0.59,1.69,-0.59c0.94,0,1.8,0.48,2.55,1.45c0.94,1.19,1.41,2.82,1.41,4.87c0,1.43,-0.2,2.65,-0.62,3.66c-0.41,1,-0.94,1.73,-1.58,2.18c-0.64,0.45,-1.26,0.68,-1.85,0.68c-1.18,0,-2.16,-0.69,-2.94,-2.09c-0.66,-1.17,-0.99,-2.59,-0.99,-4.24m1.78,0.22c0,1.7,0.21,3.09,0.63,4.17c0.34,0.9,0.86,1.36,1.55,1.36c0.32,0,0.66,-0.14,1.02,-0.44c0.35,-0.29,0.62,-0.78,0.8,-1.48c0.28,-1.04,0.42,-2.52,0.42,-4.42c0,-1.41,-0.14,-2.59,-0.43,-3.53c-0.21,-0.7,-0.5,-1.19,-0.84,-1.48c-0.24,-0.2,-0.55,-0.3,-0.9,-0.3c-0.41,0,-0.78,0.18,-1.1,0.55c-0.43,0.5,-0.73,1.29,-0.89,2.38c-0.15,1.08,-0.23,2.15,-0.23,3.2" fill="#000000" stroke="none" fill-opacity="1"/>
<path d="m49.15,306.46l0,1.29l-1.66,0l0,3.26l-1.5,0l0,-3.26l-5.24,0l0,-1.16l5.74,-8.19l1,0l0,8.07l1.66,0m-3.16,0l0,-6.14l-4.34,6.14l4.34,0m4.54,-1.55c0,-1.41,0.21,-2.62,0.63,-3.64c0.42,-1.01,0.99,-1.77,1.69,-2.27c0.54,-0.39,1.11,-0.59,1.69,-0.59c0.94,0,1.8,0.48,2.55,1.45c0.94,1.19,1.41,2.82,1.41,4.87c0,1.43,-0.2,2.65,-0.62,3.66c-0.41,1,-0.94,1.73,-1.58,2.18c-0.64,0.45,-1.26,0.68,-1.85,0.68c-1.18,0,-2.16,-0.69,-2.94,-2.09c-0.66,-1.17,-0.99,-2.59,-0.99,-4.24m1.78,0.22c0,1.7,0.21,3.09,0.63,4.17c0.34,0.9,0.86,1.36,1.55,1.36c0.32,0,0.66,-0.14,1.02,-0.44c0.35,-0.29,0.62,-0.78,0.8,-1.48c0.28,-1.04,0.42,-2.52,0.42,-4.42c0,-1.41,-0.14,-2.59,-0.43,-3.53c-0.21,-0.7,-0.5,-1.19,-0.84,-1.48c-0.24,-0.2,-0.55,-0.3,-0.9,-0.3c-0.41,0,-0.78,0.18,-1.1,0.55c-0.43,0.5,-0.73,1.29,-0.89,2.38c-0.15,1.08,-0.23,2.15,-0.23,3.2" fill="#000000" stroke="none" fill-opacity="1"/>
<path d="m48.83,199.36l0,0.33c-0.8,0.07,-1.45,0.23,-1.96,0.47c-0.5,0.24,-1.01,0.6,-1.5,1.1c-0.49,0.49,-0.9,1.04,-1.23,1.64c-0.32,0.6,-0.59,1.32,-0.81,2.15c0.87,-0.6,1.75,-0.9,2.63,-0.9c0.84,0,1.57,0.34,2.2,1.02c0.62,0.68,0.93,1.55,0.93,2.62c0,1.03,-0.31,1.97,-0.94,2.83c-0.75,1.03,-1.75,1.55,-2.99,1.55c-0.84,0,-1.56,-0.28,-2.15,-0.84c-1.15,-1.08,-1.73,-2.5,-1.73,-4.23c0,-1.1,0.22,-2.16,0.66,-3.15c0.44,-0.99,1.07,-1.88,1.9,-2.65c0.82,-0.77,1.61,-1.29,2.36,-1.56c0.75,-0.26,1.45,-0.4,2.1,-0.4l0.52,0m-5.67,6.39c-0.1,0.82,-0.16,1.48,-0.16,1.99c0,0.58,0.1,1.21,0.32,1.9c0.21,0.68,0.53,1.22,0.96,1.62c0.31,0.28,0.68,0.42,1.13,0.42c0.52,0,1,-0.24,1.41,-0.74c0.41,-0.49,0.62,-1.21,0.62,-2.13c0,-1.04,-0.2,-1.94,-0.62,-2.7c-0.41,-0.76,-1,-1.14,-1.76,-1.14c-0.23,0,-0.47,0.04,-0.74,0.14c-0.26,0.09,-0.65,0.3,-1.17,0.63m7.37,0.12c0,-1.41,0.21,-2.62,0.63,-3.64c0.42,-1.01,0.99,-1.77,1.69,-2.27c0.54,-0.39,1.11,-0.59,1.69,-0.59c0.94,0,1.8,0.48,2.55,1.45c0.94,1.19,1.41,2.82,1.41,4.87c0,1.43,-0.2,2.65,-0.62,3.66c-0.41,1,-0.94,1.73,-1.58,2.18c-0.64,0.45,-1.26,0.68,-1.85,0.68c-1.18,0,-2.16,-0.69,-2.94,-2.09c-0.66,-1.17,-0.99,-2.59,-0.99,-4.24m1.78,0.22c0,1.7,0.21,3.09,0.63,4.17c0.34,0.9,0.86,1.36,1.55,1.36c0.32,0,0.66,-0.14,1.02,-0.44c0.35,-0.29,0.62,-0.78,0.8,-1.48c0.28,-1.04,0.42,-2.52,0.42,-4.42c0,-1.41,-0.14,-2.59,-0.43,-3.53c-0.21,-0.7,-0.5,-1.19,-0.84,-1.48c-0.24,-0.2,-0.55,-0.3,-0.9,-0.3c-0.41,0,-0.78,0.18,-1.1,0.55c-0.43,0.5,-0.73,1.29,-0.89,2.38c-0.15,1.08,-0.23,2.15,-0.23,3.2" fill="#000000" stroke="none" fill-opacity="1"/>
<path d="m44.04,106.74c-0.98,-0.8,-1.61,-1.44,-1.89,-1.93c-0.28,-0.48,-0.42,-0.99,-0.42,-1.51c0,-0.8,0.31,-1.49,0.93,-2.07c0.62,-0.58,1.44,-0.87,2.47,-0.87c0.99,0,1.8,0.27,2.41,0.81c0.6,0.54,0.91,1.15,0.91,1.85c0,0.46,-0.16,0.93,-0.49,1.41c-0.32,0.48,-1.01,1.04,-2.05,1.69c1.07,0.82,1.78,1.47,2.12,1.95c0.46,0.62,0.69,1.27,0.69,1.96c0,0.87,-0.33,1.61,-0.99,2.23c-0.66,0.61,-1.53,0.92,-2.61,0.92c-1.17,0,-2.09,-0.36,-2.74,-1.1c-0.52,-0.59,-0.78,-1.23,-0.78,-1.93c0,-0.54,0.18,-1.09,0.55,-1.62c0.36,-0.53,1,-1.13,1.9,-1.78m1.43,-0.97c0.73,-0.65,1.19,-1.17,1.38,-1.55c0.19,-0.38,0.29,-0.81,0.29,-1.29c0,-0.63,-0.17,-1.13,-0.53,-1.5c-0.35,-0.36,-0.84,-0.54,-1.47,-0.54c-0.62,0,-1.12,0.17,-1.51,0.53c-0.38,0.35,-0.58,0.77,-0.58,1.26c0,0.31,0.08,0.63,0.24,0.94c0.16,0.31,0.39,0.61,0.68,0.9l1.49,1.24m-1,1.32c-0.5,0.42,-0.87,0.89,-1.12,1.39c-0.24,0.5,-0.36,1.04,-0.36,1.62c0,0.78,0.21,1.41,0.64,1.88c0.42,0.47,0.97,0.7,1.63,0.7c0.65,0,1.18,-0.18,1.57,-0.55c0.39,-0.37,0.59,-0.82,0.59,-1.35c0,-0.43,-0.11,-0.83,-0.34,-1.17c-0.43,-0.64,-1.3,-1.48,-2.62,-2.52m6.05,-0.22c0,-1.41,0.21,-2.62,0.63,-3.64c0.42,-1.01,0.99,-1.77,1.69,-2.27c0.54,-0.39,1.11,-0.59,1.69,-0.59c0.94,0,1.8,0.48,2.55,1.45c0.94,1.19,1.41,2.82,1.41,4.87c0,1.43,-0.2,2.65,-0.62,3.66c-0.41,1,-0.94,1.73,-1.58,2.18c-0.64,0.45,-1.26,0.68,-1.85,0.68c-1.18,0,-2.16,-0.69,-2.94,-2.09c-0.66,-1.17,-0.99,-2.59,-0.99,-4.24m1.78,0.22c0,1.7,0.21,3.09,0.63,4.17c0.34,0.9,0.86,1.36,1.55,1.36c0.32,0,0.66,-0.14,1.02,-0.44c0.35,-0.29,0.62,-0.78,0.8,-1.48c0.28,-1.04,0.42,-2.52,0.42,-4.42c0,-1.41,-0.14,-2.59,-0.43,-3.53c-0.21,-0.7,-0.5,-1.19,-0.84,-1.48c-0.24,-0.2,-0.55,-0.3,-0.9,-0.3c-0.41,0,-0.78,0.18,-1.1,0.55c-0.43,0.5,-0.73,1.29,-0.89,2.38c-0.15,1.08,-0.23,2.15,-0.23,3.2" fill="#000000" stroke="none" fill-opacity="1"/>
<path d="m33.24,5.81l3.01,-1.47l0.3,0l0,10.45c0,0.69,0.02,1.12,0.08,1.29c0.05,0.17,0.17,0.3,0.36,0.39c0.18,0.09,0.55,0.14,1.11,0.15l0,0.33l-4.65,0l0,-0.33c0.58,-0.01,0.96,-0.06,1.13,-0.15c0.17,-0.08,0.28,-0.2,0.35,-0.35c0.06,-0.14,0.1,-0.59,0.1,-1.33l0,-6.68c0,-0.9,-0.03,-1.47,-0.09,-1.73c-0.04,-0.19,-0.12,-0.33,-0.23,-0.42c-0.11,-0.09,-0.24,-0.13,-0.4,-0.13c-0.22,0,-0.53,0.09,-0.94,0.28l-0.13,-0.28m7.88,5.04c0,-1.41,0.21,-2.62,0.63,-3.64c0.42,-1.01,0.99,-1.77,1.69,-2.27c0.54,-0.39,1.11,-0.59,1.69,-0.59c0.94,0,1.8,0.48,2.55,1.45c0.94,1.19,1.41,2.82,1.41,4.87c0,1.43,-0.2,2.65,-0.62,3.66c-0.41,1,-0.94,1.73,-1.58,2.18c-0.64,0.45,-1.26,0.68,-1.85,0.68c-1.18,0,-2.16,-0.69,-2.94,-2.09c-0.66,-1.17,-0.99,-2.59,-0.99,-4.24m1.78,0.22c0,1.7,0.21,3.09,0.63,4.17c0.34,0.9,0.86,1.36,1.55,1.36c0.32,0,0.66,-0.14,1.02,-0.44c0.35,-0.29,0.62,-0.78,0.8,-1.48c0.28,-1.04,0.42,-2.52,0.42,-4.42c0,-1.41,-0.14,-2.59,-0.43,-3.53c-0.21,-0.7,-0.5,-1.19,-0.84,-1.48c-0.24,-0.2,-0.55,-0.3,-0.9,-0.3c-0.41,0,-0.78,0.18,-1.1,0.55c-0.43,0.5,-0.73,1.29,-0.89,2.38c-0.15,1.08,-0.23,2.15,-0.23,3.2m7.61,-0.22c0,-1.41,0.21,-2.62,0.63,-3.64c0.42,-1.01,0.99,-1.77,1.69,-2.27c0.54,-0.39,1.11,-0.59,1.69,-0.59c0.94,0,1.8,0.48,2.55,1.45c0.94,1.19,1.41,2.82,1.41,4.87c0,1.43,-0.2,2.65,-0.62,3.66c-0.41,1,-0.94,1.73,-1.58,2.18c-0.64,0.45,-1.26,0.68,-1.85,0.68c-1.18,0,-2.16,-0.69,-2.94,-2.09c-0.66,-1.17,-0.99,-2.59,-0.99,-4.24m1.78,0.22c0,1.7,0.21,3.09,0.63,4.17c0.34,0.9,0.86,1.36,1.55,1.36c0.32,0,0.66,-0.14,1.02,-0.44c0.35,-0.29,0.62,-0.78,0.8,-1.48c0.28,-1.04,0.42,-2.52,0.42,-4.42c0,-1.41,-0.14,-2.59,-0.43,-3.53c-0.21,-0.7,-0.5,-1.19,-0.84,-1.48c-0.24,-0.2,-0.55,-0.3,-0.9,-0.3c-0.41,0,-0.78,0.18,-1.1,0.55c-0.43,0.5,-0.73,1.29,-0.89,2.38c-0.15,1.08,-0.23,2.15,-0.23,3.2" fill="#000000" stroke="none" fill-opacity="1"/>
</g>
<g fill="none" stroke-linecap="butt" stroke-width="0.66">
<path d="M64.25,502.67l495.11,0"/>
<path d="M64.25,502.67l0,-4M89,502.67l0,-4M113.76,502.67l0,-4M138.51,502.67l0,-4M163.27,502.67l0,-4M188.03,502.67l0,-4M212.78,502.67l0,-4M237.54,502.67l0,-4M262.29,502.67l0,-4M287.05,502.67l0,-4M311.81,502.67l0,-4M336.56,502.67l0,-4M361.32,502.67l0,-4M386.07,502.67l0,-4M410.83,502.67l0,-4M435.59,502.67l0,-4M460.34,502.67l0,-4M485.1,502.67l0,-4M509.85,502.67l0,-4M534.61,502.67l0,-4M559.37,502.67l0,-4"/>
<path d="M64.25,502.67l0,-8M163.27,502.67l0,-8M262.29,502.67l0,-8M361.32,502.67l0,-8M460.34,502.67l0,-8M559.37,502.67l0,-8"/>
</g>
<g fill="none" stroke-width="0.1">
<path d="m60.22,518.25c0,-1.41,0.21,-2.62,0.63,-3.64c0.42,-1.01,0.99,-1.77,1.69,-2.27c0.54,-0.39,1.11,-0.59,1.69,-0.59c0.94,0,1.8,0.48,2.55,1.45c0.94,1.19,1.41,2.82,1.41,4.87c0,1.43,-0.2,2.65,-0.62,3.66c-0.41,1,-0.94,1.73,-1.58,2.18c-0.64,0.45,-1.26,0.68,-1.85,0.68c-1.18,0,-2.16,-0.69,-2.94,-2.09c-0.66,-1.17,-0.99,-2.59,-0.99,-4.24m1.78,0.22c0,1.7,0.21,3.09,0.63,4.17c0.34,0.9,0.86,1.36,1.55,1.36c0.32,0,0.66,-0.14,1.02,-0.44c0.35,-0.29,0.62,-0.78,0.8,-1.48c0.28,-1.04,0.42,-2.52,0.42,-4.42c0,-1.41,-0.14,-2.59,-0.43,-3.53c-0.21,-0.7,-0.5,-1.19,-0.84,-1.48c-0.24,-0.2,-0.55,-0.3,-0.9,-0.3c-0.41,0,-0.78,0.18,-1.1,0.55c-0.43,0.5,-0.73,1.29,-0.89,2.38c-0.15,1.08,-0.23,2.15,-0.23,3.2" fill="#000000" stroke="none" fill-opacity="1"/>
<path d="m167.14,521.99l-0.86,2.38l-7.3,0l0,-0.33c2.14,-1.96,3.66,-3.56,4.53,-4.8c0.87,-1.24,1.31,-2.37,1.31,-3.4c0,-0.78,-0.24,-1.43,-0.72,-1.93c-0.48,-0.5,-1.05,-0.75,-1.72,-0.75c-0.6,0,-1.15,0.17,-1.63,0.53c-0.48,0.35,-0.84,0.87,-1.07,1.56l-0.33,0c0.15,-1.12,0.54,-1.99,1.17,-2.59c0.63,-0.6,1.41,-0.9,2.36,-0.9c1,0,1.84,0.32,2.51,0.96c0.67,0.64,1,1.4,1,2.28c0,0.62,-0.14,1.25,-0.43,1.88c-0.45,0.98,-1.18,2.03,-2.19,3.13c-1.51,1.65,-2.46,2.65,-2.83,2.99l3.23,0c0.65,0,1.11,-0.02,1.38,-0.07c0.26,-0.04,0.5,-0.14,0.71,-0.29c0.21,-0.14,0.39,-0.36,0.55,-0.63l0.33,0" fill="#000000" stroke="none" fill-opacity="1"/>
<path d="m266.3,519.81l0,1.29l-1.66,0l0,3.26l-1.5,0l0,-3.26l-5.24,0l0,-1.16l5.74,-8.19l1,0l0,8.07l1.66,0m-3.16,0l0,-6.14l-4.34,6.14l4.34,0" fill="#000000" stroke="none" fill-opacity="1"/>
<path d="m365,511.73l0,0.33c-0.8,0.07,-1.45,0.23,-1.96,0.47c-0.5,0.24,-1.01,0.6,-1.5,1.1c-0.49,0.49,-0.9,1.04,-1.23,1.64c-0.32,0.6,-0.59,1.32,-0.81,2.15c0.87,-0.6,1.75,-0.9,2.63,-0.9c0.84,0,1.57,0.34,2.2,1.02c0.62,0.68,0.93,1.55,0.93,2.62c0,1.03,-0.31,1.97,-0.94,2.83c-0.75,1.03,-1.75,1.55,-2.99,1.55c-0.84,0,-1.56,-0.28,-2.15,-0.84c-1.15,-1.08,-1.73,-2.5,-1.73,-4.23c0,-1.1,0.22,-2.16,0.66,-3.15c0.44,-0.99,1.07,-1.88,1.9,-2.65c0.82,-0.77,1.61,-1.29,2.36,-1.56c0.75,-0.26,1.45,-0.4,2.1,-0.4l0.52,0m-5.67,6.39c-0.1,0.82,-0.16,1.48,-0.16,1.99c0,0.58,0.1,1.21,0.32,1.9c0.21,0.68,0.53,1.22,0.96,1.62c0.31,0.28,0.68,0.42,1.13,0.42c0.52,0,1,-0.24,1.41,-0.74c0.41,-0.49,0.62,-1.21,0.62,-2.13c0,-1.04,-0.2,-1.94,-0.62,-2.7c-0.41,-0.76,-1,-1.14,-1.76,-1.14c-0.23,0,-0.47,0.04,-0.74,0.14c-0.26,0.09,-0.65,0.3,-1.17,0.63" fill="#000000" stroke="none" fill-opacity="1"/>
<path d="m459.23,518.14c-0.98,-0.8,-1.61,-1.44,-1.89,-1.93c-0.28,-0.48,-0.42,-0.99,-0.42,-1.51c0,-0.8,0.31,-1.49,0.93,-2.07c0.62,-0.58,1.44,-0.87,2.47,-0.87c0.99,0,1.8,0.27,2.41,0.81c0.6,0.54,0.91,1.15,0.91,1.85c0,0.46,-0.16,0.93,-0.49,1.41c-0.32,0.48,-1.01,1.04,-2.05,1.69c1.07,0.82,1.78,1.47,2.12,1.95c0.46,0.62,0.69,1.27,0.69,1.96c0,0.87,-0.33,1.61,-0.99,2.23c-0.66,0.61,-1.53,0.92,-2.61,0.92c-1.17,0,-2.09,-0.36,-2.74,-1.1c-0.52,-0.59,-0.78,-1.23,-0.78,-1.93c0,-0.54,0.18,-1.09,0.55,-1.62c0.36,-0.53,1,-1.13,1.9,-1.78m1.43,-0.97c0.73,-0.65,1.19,-1.17,1.38,-1.55c0.19,-0.38,0.29,-0.81,0.29,-1.29c0,-0.63,-0.17,-1.13,-0.53,-1.5c-0.35,-0.36,-0.84,-0.54,-1.47,-0.54c-0.62,0,-1.12,0.17,-1.51,0.53c-0.38,0.35,-0.58,0.77,-0.58,1.26c0,0.31,0.08,0.63,0.24,0.94c0.16,0.31,0.39,0.61,0.68,0.9l1.49,1.24m-1,1.32c-0.5,0.42,-0.87,0.89,-1.12,1.39c-0.24,0.5,-0.36,1.04,-0.36,1.62c0,0.78,0.21,1.41,0.64,1.88c0.42,0.47,0.97,0.7,1.63,0.7c0.65,0,1.18,-0.18,1.57,-0.55c0.39,-0.37,0.59,-0.82,0.59,-1.35c0,-0.43,-0.11,-0.83,-0.34,-1.17c-0.43,-0.64,-1.3,-1.48,-2.62,-2.52" fill="#000000" stroke="none" fill-opacity="1"/>
<path d="m550.31,513.2l3.01,-1.47l0.3,0l0,10.45c0,0.69,0.02,1.12,0.08,1.29c0.05,0.17,0.17,0.3,0.36,0.39c0.18,0.09,0.55,0.14,1.11,0.15l0,0.33l-4.65,0l0,-0.33c0.58,-0.01,0.96,-0.06,1.13,-0.15c0.17,-0.08,0.28,-0.2,0.35,-0.35c0.06,-0.14,0.1,-0.59,0.1,-1.33l0,-6.68c0,-0.9,-0.03,-1.47,-0.09,-1.73c-0.04,-0.19,-0.12,-0.33,-0.23,-0.42c-0.11,-0.09,-0.24,-0.13,-0.4,-0.13c-0.22,0,-0.53,0.09,-0.94,0.28l-0.13,-0.28m7.88,5.04c0,-1.41,0.21,-2.62,0.63,-3.64c0.42,-1.01,0.99,-1.77,1.69,-2.27c0.54,-0.39,1.11,-0.59,1.69,-0.59c0.94,0,1.8,0.48,2.55,1.45c0.94,1.19,1.41,2.82,1.41,4.87c0,1.43,-0.2,2.65,-0.62,3.66c-0.41,1,-0.94,1.73,-1.58,2.18c-0.64,0.45,-1.26,0.68,-1.85,0.68c-1.18,0,-2.16,-0.69,-2.94,-2.09c-0.66,-1.17,-0.99,-2.59,-0.99,-4.24m1.78,0.22c0,1.7,0.21,3.09,0.63,4.17c0.34,0.9,0.86,1.36,1.55,1.36c0.32,0,0.66,-0.14,1.02,-0.44c0.35,-0.29,0.62,-0.78,0.8,-1.48c0.28,-1.04,0.42,-2.52,0.42,-4.42c0,-1.41,-0.14,-2.59,-0.43,-3.53c-0.21,-0.7,-0.5,-1.19,-0.84,-1.48c-0.24,-0.2,-0.55,-0.3,-0.9,-0.3c-0.41,0,-0.78,0.18,-1.1,0.55c-0.43,0.5,-0.73,1.29,-0.89,2.38c-0.15,1.08,-0.23,2.15,-0.23,3.2" fill="#000000" stroke="none" fill-opacity="1"/>
</g>
<g fill="none" stroke-linecap="butt" stroke-width="0.66">
<path d="M559.37,502.67l0,-495.11"/>
<path d="M559.37,502.67l-4,0M559.37,477.92l-4,0M559.37,453.16l-4,0M559.37,428.4l-4,0M559.37,403.65l-4,0M559.37,378.89l-4,0M559.37,354.14l-4,0M559.37,329.38l-4,0M559.37,304.62l-4,0M559.37,279.87l-4,0M559.37,255.11l-4,0M559.37,230.36l-4,0M559.37,205.6l-4,0M559.37,180.85l-4,0M559.37,156.09l-4,0M559.37,131.33l-4,0M559.37,106.58l-4,0M559.37,81.82l-4,0M559.37,57.07l-4,0M559.37,32.31l-4,0M559.37,7.55l-4,0"/>
<path d="M559.37,502.67l-8,0M559.37,403.65l-8,0M559.37,304.62l-8,0M559.37,205.6l-8,0M559.37,106.58l-8,0M559.37,7.55l-8,0"/>
<path d="M64.25,7.55l495.11,0"/>
<path d="M64.25,7.55l0,4M89,7.55l0,4M113.76,7.55l0,4M138.51,7.55l0,4M163.27,7.55l0,4M188.03,7.55l0,4M212.78,7.55l0,4M237.54,7.55l0,4M262.29,7.55l0,4M287.05,7.55l0,4M311.81,7.55l0,4M336.56,7.55l0,4M361.32,7.55l0,4M386.07,7.55l0,4M410.83,7.55l0,4M435.59,7.55l0,4M460.34,7.55l0,4M485.1,7.55l0,4M509.85,7.55l0,4M534.61,7.55l0,4M559.37,7.55l0,4"/>
<path d="M64.25,7.55l0,8M163.27,7.55l0,8M262.29,7.55l0,8M361.32,7.55l0,8M460.34,7.55l0,8M559.37,7.55l0,8"/>
</g>
</g>
</g>
</svg>
