<?xml version="1.0" standalone="no"?>
<!DOCTYPE svg PUBLIC "-//W3C//DTD SVG 1.1//EN"
  "http://www.w3.org/Graphics/SVG/1.1/DTD/svg11.dtd">
<svg width="566.92px" height="566.92px" version="1.1"
    xmlns="http://www.w3.org/2000/svg"
    xmlns:xlink="http://www.w3.org/1999/xlink">
<desc>Veusz output document</desc>
<defs>
<clipPath id="c0">
<path d="m0,0l566.92,0l0,566.92l-566.92,0l0,-566.92"/>
</clipPath>
<clipPath id="c1">
<path d="m64.25,7.55l495.11,0l0,495.11l-495.11,0l0,-495.11"/>
</clipPath>
</defs>
<g stroke-linejoin="bevel" stroke-linecap="square" stroke="#000000" fill-rule="evenodd">
<g clip-path="url(#c0)">
<g fill="#ffffff" stroke-width="0.66">
<path d="m64.25,7.55l495.11,0l0,495.11l-495.11,0l0,-495.11"/>
</g>
</g>
<g clip-path="url(#c1)">
<g fill="none" stroke-linecap="butt" stroke-width="0.66">
<path d="M99.61,255.11l0,247.55"/>
<path d="M73.09,255.11l53.04,0"/>
<path d="M73.09,502.67l53.04,0"/>
</g>
<g fill="#ffffff" stroke="none" stroke-width="0.1">
<path d="m46.56,440.78l106.09,0l0,-123.77l-106.09,0l0,123.77" id="p0"/>
</g>
<g fill="none" stroke-linecap="butt" stroke-width="0.66">
<path d="M46.56,378.89l106.09,0"/>
</g>
<g fill="none" stroke-width="0.66">
<use xlink:href="#p0"/>
</g>
<g fill="none" stroke-linejoin="miter" stroke-width="0.66">
<g transform="translate(99.61,378.89)">
<path d="m-2.82,-2.82l5.65,5.65m-5.65,0l5.65,-5.65" id="p2"/>
</g>
</g>
<g fill="#ffffff" stroke-linecap="butt" stroke-width="0.66">
<path d="M241.07,7.55l0,495.11"/>
<path d="M214.55,7.55l53.04,0"/>
<path d="M214.55,502.67l53.04,0"/>
</g>
<g fill="#ffffff" stroke="none" stroke-width="0.1">
<path d="m188.03,409.84l106.09,0l0,-309.44l-106.09,0l0,309.44" id="p1"/>
</g>
<g fill="#ffffff" stroke-linecap="butt" stroke-width="0.66">
<path d="M188.03,255.11l106.09,0"/>
</g>
<g fill="none" stroke-width="0.66">
<use xlink:href="#p1"/>
</g>
<g fill="none" stroke-linejoin="miter" stroke-width="0.66">
<use xlink:href="#p2" x="241.07" y="255.11"/>
</g>
</g>
<g clip-path="url(#c0)">
<g fill="none" stroke-linecap="butt" stroke-width="0.66">
<path d="M64.25,502.67l0,-495.11"/>
<path d="M64.25,502.67l4,0M64.25,477.92l4,0M64.25,453.16l4,0M64.25,428.4l4,0M64.25,403.65l4,0M64.25,378.89l4,0M64.25,354.14l4,0M64.25,329.38l4,0M64.25,304.62l4,0M64.25,279.87l4,0M64.25,255.11l4,0M64.25,230.36l4,0M64.25,205.6l4,0M64.25,180.85l4,0M64.25,156.09l4,0M64.25,131.33l4,0M64.25,106.58l4,0M64.25,81.82l4,0M64.25,57.07l4,0M64.25,32.31l4,0M64.25,7.55l4,0"/>
<path d="M64.25,502.67l8,0M64.25,378.89l8,0M64.25,255.11l8,0M64.25,131.33l8,0M64.25,7.55l8,0"/>
</g>
<g fill="none" stroke-width="0.1">
<path d="m52.04,497.9l3.01,-1.47l0.3,0l0,10.45c0,0.69,0.02,1.12,0.08,1.29c0.05,0.17,0.17,0.3,0.36,0.39c0.18,0.09,0.55,0.14,1.11,0.15l0,0.33l-4.65,0l0,-0.33c0.58,-0.01,0.96,-0.06,1.13,-0.15c0.17,-0.08,0.28,-0.2,0.35,-0.35c0.06,-0.14,0.1,-0.59,0.1,-1.33l0,-6.68c0,-0.9,-0.03,-1.47,-0.09,-1.73c-0.04,-0.19,-0.12,-0.33,-0.23,-0.42c-0.11,-0.09,-0.24,-0.13,-0.4,-0.13c-0.22,0,-0.53,0.09,-0.94,0.28l-0.13,-0.28" fill="#000000" stroke="none" fill-opacity="1"/>
<path d="m58.42,382.91l-0.86,2.38l-7.3,0l0,-0.33c2.14,-1.96,3.66,-3.56,4.53,-4.8c0.87,-1.24,1.31,-2.37,1.31,-3.4c0,-0.78,-0.24,-1.43,-0.72,-1.93c-0.48,-0.5,-1.05,-0.75,-1.72,-0.75c-0.6,0,-1.15,0.17,-1.63,0.53c-0.48,0.35,-0.84,0.87,-1.07,1.56l-0.33,0c0.15,-1.12,0.54,-1.99,1.17,-2.59c0.63,-0.6,1.41,-0.9,2.36,-0.9c1,0,1.84,0.32,2.51,0.96c0.67,0.64,1,1.4,1,2.28c0,0.62,-0.14,1.25,-0.43,1.88c-0.45,0.98,-1.18,2.03,-2.19,3.13c-1.51,1.65,-2.46,2.65,-2.83,2.99l3.23,0c0.65,0,1.11,-0.02,1.38,-0.07c0.26,-0.04,0.5,-0.14,0.71,-0.29c0.21,-0.14,0.39,-0.36,0.55,-0.63l0.33,0" fill="#000000" stroke="none" fill-opacity="1"/>
<path d="m50.8,251.49c0.35,-0.83,0.79,-1.47,1.33,-1.93c0.53,-0.45,1.2,-0.68,2.01,-0.68c0.99,0,1.75,0.32,2.28,0.96c0.4,0.48,0.6,0.99,0.6,1.54c0,0.9,-0.56,1.83,-1.69,2.79c0.76,0.29,1.33,0.72,1.72,1.27c0.38,0.55,0.58,1.2,0.58,1.95c0,1.07,-0.34,1.99,-1.02,2.78c-0.88,1.02,-2.17,1.53,-3.86,1.53c-0.83,0,-1.4,-0.1,-1.7,-0.31c-0.3,-0.2,-0.45,-0.42,-0.45,-0.66c0,-0.17,0.07,-0.33,0.21,-0.46c0.14,-0.13,0.31,-0.2,0.51,-0.2c0.15,0,0.3,0.02,0.46,0.07c0.1,0.03,0.33,0.14,0.7,0.33c0.36,0.19,0.61,0.3,0.75,0.34c0.22,0.06,0.46,0.1,0.72,0.1c0.62,0,1.16,-0.24,1.62,-0.72c0.45,-0.48,0.68,-1.05,0.68,-1.7c0,-0.48,-0.1,-0.94,-0.31,-1.4c-0.15,-0.34,-0.33,-0.59,-0.52,-0.77c-0.26,-0.24,-0.62,-0.46,-1.07,-0.66c-0.45,-0.19,-0.92,-0.29,-1.39,-0.29l-0.29,0l0,-0.27c0.48,-0.06,0.96,-0.23,1.44,-0.52c0.48,-0.28,0.83,-0.63,1.05,-1.03c0.21,-0.4,0.32,-0.84,0.32,-1.32c0,-0.62,-0.19,-1.13,-0.58,-1.52c-0.39,-0.38,-0.88,-0.57,-1.46,-0.57c-0.94,0,-1.73,0.5,-2.36,1.51l-0.3,-0.14" fill="#000000" stroke="none" fill-opacity="1"/>
<path d="m58.55,133.17l0,1.29l-1.66,0l0,3.26l-1.5,0l0,-3.26l-5.24,0l0,-1.16l5.74,-8.19l1,0l0,8.07l1.66,0m-3.16,0l0,-6.14l-4.34,6.14l4.34,0" fill="#000000" stroke="none" fill-opacity="1"/>
<path d="m57.96,4.59l-0.71,1.55l-3.72,0l-0.81,1.66c1.61,0.23,2.89,0.83,3.83,1.79c0.8,0.82,1.21,1.8,1.21,2.92c0,0.65,-0.13,1.25,-0.39,1.8c-0.26,0.55,-0.59,1.02,-0.99,1.41c-0.4,0.38,-0.84,0.7,-1.34,0.94c-0.7,0.33,-1.41,0.5,-2.15,0.5c-0.74,0,-1.28,-0.12,-1.62,-0.37c-0.33,-0.25,-0.5,-0.53,-0.5,-0.83c0,-0.17,0.07,-0.32,0.21,-0.45c0.14,-0.13,0.31,-0.19,0.52,-0.19c0.15,0,0.29,0.02,0.41,0.07c0.11,0.04,0.32,0.17,0.6,0.37c0.45,0.31,0.91,0.47,1.38,0.47c0.71,0,1.33,-0.26,1.87,-0.8c0.53,-0.53,0.8,-1.19,0.8,-1.96c0,-0.74,-0.24,-1.44,-0.72,-2.09c-0.48,-0.64,-1.14,-1.14,-1.99,-1.5c-0.66,-0.27,-1.56,-0.43,-2.71,-0.47l2.37,-4.81l4.43,0" fill="#000000" stroke="none" fill-opacity="1"/>
</g>
<g fill="none" stroke-linecap="butt" stroke-width="0.66">
<path d="M64.25,502.67l495.11,0"/>
<path d="M64.25,502.67l0,-4M99.61,502.67l0,-4M134.98,502.67l0,-4M170.34,502.67l0,-4M205.71,502.67l0,-4M241.07,502.67l0,-4M276.44,502.67l0,-4M311.81,502.67l0,-4M347.17,502.67l0,-4M382.54,502.67l0,-4M417.9,502.67l0,-4M453.27,502.67l0,-4M488.63,502.67l0,-4M524,502.67l0,-4M559.37,502.67l0,-4"/>
<path d="M99.61,502.67l0,-8M241.07,502.67l0,-8M382.54,502.67l0,-8M524,502.67l0,-8"/>
</g>
<g fill="none" stroke-width="0.1">
<path d="m103.49,521.99l-0.86,2.38l-7.3,0l0,-0.33c2.14,-1.96,3.66,-3.56,4.53,-4.8c0.87,-1.24,1.31,-2.37,1.31,-3.4c0,-0.78,-0.24,-1.43,-0.72,-1.93c-0.48,-0.5,-1.05,-0.75,-1.72,-0.75c-0.6,0,-1.15,0.17,-1.63,0.53c-0.48,0.35,-0.84,0.87,-1.07,1.56l-0.33,0c0.15,-1.12,0.54,-1.99,1.17,-2.59c0.63,-0.6,1.41,-0.9,2.36,-0.9c1,0,1.84,0.32,2.51,0.96c0.67,0.64,1,1.4,1,2.28c0,0.62,-0.14,1.25,-0.43,1.88c-0.45,0.98,-1.18,2.03,-2.19,3.13c-1.51,1.65,-2.46,2.65,-2.83,2.99l3.23,0c0.65,0,1.11,-0.02,1.38,-0.07c0.26,-0.04,0.5,-0.14,0.71,-0.29c0.21,-0.14,0.39,-0.36,0.55,-0.63l0.33,0" fill="#000000" stroke="none" fill-opacity="1"/>
<path d="m245.08,519.81l0,1.29l-1.66,0l0,3.26l-1.5,0l0,-3.26l-5.24,0l0,-1.16l5.74,-8.19l1,0l0,8.07l1.66,0m-3.16,0l0,-6.14l-4.34,6.14l4.34,0" fill="#000000" stroke="none" fill-opacity="1"/>
<path d="m386.22,511.73l0,0.33c-0.8,0.07,-1.45,0.23,-1.96,0.47c-0.5,0.24,-1.01,0.6,-1.5,1.1c-0.49,0.49,-0.9,1.04,-1.23,1.64c-0.32,0.6,-0.59,1.32,-0.81,2.15c0.87,-0.6,1.75,-0.9,2.63,-0.9c0.84,0,1.57,0.34,2.2,1.02c0.62,0.68,0.93,1.55,0.93,2.62c0,1.03,-0.31,1.97,-0.94,2.83c-0.75,1.03,-1.75,1.55,-2.99,1.55c-0.84,0,-1.56,-0.28,-2.15,-0.84c-1.15,-1.08,-1.73,-2.5,-1.73,-4.23c0,-1.1,0.22,-2.16,0.66,-3.15c0.44,-0.99,1.07,-1.88,1.9,-2.65c0.82,-0.77,1.61,-1.29,2.36,-1.56c0.75,-0.26,1.45,-0.4,2.1,-0.4l0.52,0m-5.67,6.39c-0.1,0.82,-0.16,1.48,-0.16,1.99c0,0.58,0.1,1.21,0.32,1.9c0.21,0.68,0.53,1.22,0.96,1.62c0.31,0.28,0.68,0.42,1.13,0.42c0.52,0,1,-0.24,1.41,-0.74c0.41,-0.49,0.62,-1.21,0.62,-2.13c0,-1.04,-0.2,-1.94,-0.62,-2.7c-0.41,-0.76,-1,-1.14,-1.76,-1.14c-0.23,0,-0.47,0.04,-0.74,0.14c-0.26,0.09,-0.65,0.3,-1.17,0.63" fill="#000000" stroke="none" fill-opacity="1"/>
<path d="m522.89,518.14c-0.98,-0.8,-1.61,-1.44,-1.89,-1.93c-0.28,-0.48,-0.42,-0.99,-0.42,-1.51c0,-0.8,0.31,-1.49,0.93,-2.07c0.62,-0.58,1.44,-0.87,2.47,-0.87c0.99,0,1.8,0.27,2.41,0.81c0.6,0.54,0.91,1.15,0.91,1.85c0,0.46,-0.16,0.93,-0.49,1.41c-0.32,0.48,-1.01,1.04,-2.05,1.69c1.07,0.82,1.78,1.47,2.12,1.95c0.46,0.62,0.69,1.27,0.69,1.96c0,0.87,-0.33,1.61,-0.99,2.23c-0.66,0.61,-1.53,0.92,-2.61,0.92c-1.17,0,-2.09,-0.36,-2.74,-1.1c-0.52,-0.59,-0.78,-1.23,-0.78,-1.93c0,-0.54,0.18,-1.09,0.55,-1.62c0.36,-0.53,1,-1.13,1.9,-1.78m1.43,-0.97c0.73,-0.65,1.19,-1.17,1.38,-1.55c0.19,-0.38,0.29,-0.81,0.29,-1.29c0,-0.63,-0.17,-1.13,-0.53,-1.5c-0.35,-0.36,-0.84,-0.54,-1.47,-0.54c-0.62,0,-1.12,0.17,-1.51,0.53c-0.38,0.35,-0.58,0.77,-0.58,1.26c0,0.31,0.08,0.63,0.24,0.94c0.16,0.31,0.39,0.61,0.68,0.9l1.49,1.24m-1,1.32c-0.5,0.42,-0.87,0.89,-1.12,1.39c-0.24,0.5,-0.36,1.04,-0.36,1.62c0,0.78,0.21,1.41,0.64,1.88c0.42,0.47,0.97,0.7,1.63,0.7c0.65,0,1.18,-0.18,1.57,-0.55c0.39,-0.37,0.59,-0.82,0.59,-1.35c0,-0.43,-0.11,-0.83,-0.34,-1.17c-0.43,-0.64,-1.3,-1.48,-2.62,-2.52" fill="#000000" stroke="none" fill-opacity="1"/>
</g>
<g fill="none" stroke-linecap="butt" stroke-width="0.66">
<path d="M559.37,502.67l0,-495.11"/>
<path d="M559.37,502.67l-4,0M559.37,477.92l-4,0M559.37,453.16l-4,0M559.37,428.4l-4,0M559.37,403.65l-4,0M559.37,378.89l-4,0M559.37,354.14l-4,0M559.37,329.38l-4,0M559.37,304.62l-4,0M559.37,279.87l-4,0M559.37,255.11l-4,0M559.37,230.36l-4,0M559.37,205.6l-4,0M559.37,180.85l-4,0M559.37,156.09l-4,0M559.37,131.33l-4,0M559.37,106.58l-4,0M559.37,81.82l-4,0M559.37,57.07l-4,0M559.37,32.31l-4,0M559.37,7.55l-4,0"/>
<path d="M559.37,502.67l-8,0M559.37,378.89l-8,0M559.37,255.11l-8,0M559.37,131.33l-8,0M559.37,7.55l-8,0"/>
<path d="M64.25,7.55l495.11,0"/>
<path d="M64.25,7.55l0,4M99.61,7.55l0,4M134.98,7.55l0,4M170.34,7.55l0,4M205.71,7.55l0,4M241.07,7.55l0,4M276.44,7.55l0,4M311.81,7.55l0,4M347.17,7.55l0,4M382.54,7.55l0,4M417.9,7.55l0,4M453.27,7.55l0,4M488.63,7.55l0,4M524,7.55l0,4M559.37,7.55l0,4"/>
<path d="M99.61,7.55l0,8M241.07,7.55l0,8M382.54,7.55l0,8M524,7.55l0,8"/>
</g>
</g>
</g>
</svg>
