<?xml version="1.0" standalone="no"?>
<!DOCTYPE svg PUBLIC "-//W3C//DTD SVG 1.1//EN"
  "http://www.w3.org/Graphics/SVG/1.1/DTD/svg11.dtd">
<svg width="566.92px" height="566.92px" version="1.1"
    xmlns="http://www.w3.org/2000/svg"
    xmlns:xlink="http://www.w3.org/1999/xlink">
<desc>Veusz output document</desc>
<defs>
<clipPath id="c0">
<path d="m0,0l566.92,0l0,566.92l-566.92,0l0,-566.92"/>
</clipPath>
<clipPath id="c1">
<path d="m64.25,7.55l495.11,0l0,495.11l-495.11,0l0,-495.11"/>
</clipPath>
</defs>
<g stroke-linejoin="bevel" stroke-linecap="square" stroke="#000000" fill-rule="evenodd">
<g clip-path="url(#c0)">
<g fill="#ffffff" stroke-width="0.66">
<path d="m64.25,7.55l495.11,0l0,495.11l-495.11,0l0,-495.11"/>
</g>
</g>
<g clip-path="url(#c1)">
<g fill="none" stroke-width="0.66">
<polyline fill="none" points="113.76,453.16 138.51,428.4 163.27,403.65 188.03,378.89 212.78,354.14 237.54,329.38 262.29,304.62 287.05,279.87 311.81,255.11 336.56,230.36 361.32,205.6 386.07,180.85 410.83,156.09 435.59,131.33 460.34,106.58 485.1,81.82 509.85,57.07 534.61,32.31 559.37,7.55"/>
</g>
<g fill="#ff8a32" stroke-linejoin="miter" stroke-width="0.66">
<g transform="matrix(0.8 0 0 0.8 113.76 453.16)">
<path d="m4,0c0,2.2,-1.79,4,-4,4c-2.2,0,-4,-1.79,-4,-4c0,-2.2,1.79,-4,4,-4c2.2,0,4,1.79,4,4" id="p0"/>
</g>
</g>
<g fill="#fad81a" stroke-linejoin="miter" stroke-width="0.66">
<g transform="matrix(1.2 0 0 1.2 138.51 428.4)">
<use xlink:href="#p0"/>
</g>
</g>
<g fill="#dd4619" stroke-linejoin="miter" stroke-width="0.66">
<g transform="matrix(1.6 0 0 1.6 163.27 403.65)">
<use xlink:href="#p0"/>
</g>
</g>
<g fill="#f9f130" stroke-linejoin="miter" stroke-width="0.66">
<g transform="matrix(2 0 0 2 188.03 378.89)">
<use xlink:href="#p0"/>
</g>
</g>
<g fill="#c00c04" stroke-linejoin="miter" stroke-width="0.66">
<g transform="matrix(2.4 0 0 2.4 212.78 354.14)">
<use xlink:href="#p0"/>
</g>
</g>
<g fill="#fefde6" stroke-linejoin="miter" stroke-width="0.66">
<g transform="matrix(2.8 0 0 2.8 237.54 329.38)">
<use xlink:href="#p0"/>
</g>
</g>
<g fill="#c31106" stroke-linejoin="miter" stroke-width="0.66">
<g transform="matrix(3.2 0 0 3.2 262.29 304.62)">
<use xlink:href="#p0"/>
</g>
</g>
<g fill="#eb6324" stroke-linejoin="miter" stroke-width="0.66">
<g transform="matrix(3.6 0 0 3.6 287.05 279.87)">
<use xlink:href="#p0"/>
</g>
</g>
<g fill="#f9e715" stroke-linejoin="miter" stroke-width="0.66">
<g transform="matrix(4 0 0 4 311.81 255.11)">
<use xlink:href="#p0"/>
</g>
</g>
<g fill="#faf460" stroke-linejoin="miter" stroke-width="0.66">
<g transform="matrix(4.4 0 0 4.4 336.56 230.36)">
<use xlink:href="#p0"/>
</g>
</g>
<g fill="#e04c1b" stroke-linejoin="miter" stroke-width="0.66">
<g transform="matrix(4.8 0 0 4.8 361.32 205.6)">
<use xlink:href="#p0"/>
</g>
</g>
<g fill="#fbf675" stroke-linejoin="miter" stroke-width="0.66">
<g transform="matrix(5.2 0 0 5.2 386.07 180.85)">
<use xlink:href="#p0"/>
</g>
</g>
<g fill="#cb230d" stroke-linejoin="miter" stroke-width="0.66">
<g transform="matrix(5.6 0 0 5.6 410.83 156.09)">
<use xlink:href="#p0"/>
</g>
</g>
<g fill="#fdaa28" stroke-linejoin="miter" stroke-width="0.66">
<g transform="matrix(6 0 0 6 435.59 131.33)">
<use xlink:href="#p0"/>
</g>
</g>
<g fill="#cc240d" stroke-linejoin="miter" stroke-width="0.66">
<g transform="matrix(6.4 0 0 6.4 460.34 106.58)">
<use xlink:href="#p0"/>
</g>
</g>
<g fill="#faf34a" stroke-linejoin="miter" stroke-width="0.66">
<g transform="matrix(6.8 0 0 6.8 485.1 81.82)">
<use xlink:href="#p0"/>
</g>
</g>
<g fill="#fefde7" stroke-linejoin="miter" stroke-width="0.66">
<g transform="matrix(7.2 0 0 7.2 509.85 57.07)">
<use xlink:href="#p0"/>
</g>
</g>
<g fill="#ff8c32" stroke-linejoin="miter" stroke-width="0.66">
<g transform="matrix(7.6 0 0 7.6 534.61 32.31)">
<use xlink:href="#p0"/>
</g>
</g>
<g fill="#fad41b" stroke-linejoin="miter" stroke-width="0.66">
<g transform="matrix(8 0 0 8 559.37 7.55)">
<use xlink:href="#p0"/>
</g>
</g>
</g>
<g clip-path="url(#c0)">
<g fill="none" stroke-linecap="butt" stroke-width="0.66">
<path d="M64.25,502.67l0,-495.11"/>
<path d="M64.25,502.67l4,0M64.25,482.87l4,0M64.25,463.06l4,0M64.25,443.26l4,0M64.25,423.45l4,0M64.25,403.65l4,0M64.25,383.84l4,0M64.25,364.04l4,0M64.25,344.23l4,0M64.25,324.43l4,0M64.25,304.62l4,0M64.25,284.82l4,0M64.25,265.02l4,0M64.25,245.21l4,0M64.25,225.41l4,0M64.25,205.6l4,0M64.25,185.8l4,0M64.25,165.99l4,0M64.25,146.19l4,0M64.25,126.38l4,0M64.25,106.58l4,0M64.25,86.77l4,0M64.25,66.97l4,0M64.25,47.16l4,0M64.25,27.36l4,0M64.25,7.55l4,0"/>
<path d="M64.25,502.67l8,0M64.25,403.65l8,0M64.25,304.62l8,0M64.25,205.6l8,0M64.25,106.58l8,0M64.25,7.55l8,0"/>
</g>
<g fill="none" stroke-width="0.1">
<path d="m50.52,502.95c0,-1.41,0.21,-2.62,0.63,-3.64c0.42,-1.01,0.99,-1.77,1.69,-2.27c0.54,-0.39,1.11,-0.59,1.69,-0.59c0.94,0,1.8,0.48,2.55,1.45c0.94,1.19,1.41,2.82,1.41,4.87c0,1.43,-0.2,2.65,-0.62,3.66c-0.41,1,-0.94,1.73,-1.58,2.18c-0.64,0.45,-1.26,0.68,-1.85,0.68c-1.18,0,-2.16,-0.69,-2.94,-2.09c-0.66,-1.17,-0.99,-2.59,-0.99,-4.24m1.78,0.22c0,1.7,0.21,3.09,0.63,4.17c0.34,0.9,0.86,1.36,1.55,1.36c0.32,0,0.66,-0.14,1.02,-0.44c0.35,-0.29,0.62,-0.78,0.8,-1.48c0.28,-1.04,0.42,-2.52,0.42,-4.42c0,-1.41,-0.14,-2.59,-0.43,-3.53c-0.21,-0.7,-0.5,-1.19,-0.84,-1.48c-0.24,-0.2,-0.55,-0.3,-0.9,-0.3c-0.41,0,-0.78,0.18,-1.1,0.55c-0.43,0.5,-0.73,1.29,-0.89,2.38c-0.15,1.08,-0.23,2.15,-0.23,3.2" fill="#000000" stroke="none" fill-opacity="1"/>
<path d="m44.32,407.67l-0.86,2.38l-7.3,0l0,-0.33c2.14,-1.96,3.66,-3.56,4.53,-4.8c0.87,-1.24,1.31,-2.37,1.31,-3.4c0,-0.78,-0.24,-1.43,-0.72,-1.93c-0.48,-0.5,-1.05,-0.75,-1.72,-0.75c-0.6,0,-1.15,0.17,-1.63,0.53c-0.48,0.35,-0.84,0.87,-1.07,1.56l-0.33,0c0.15,-1.12,0.54,-1.99,1.17,-2.59c0.63,-0.6,1.41,-0.9,2.36,-0.9c1,0,1.84,0.32,2.51,0.96c0.67,0.64,1,1.4,1,2.28c0,0.62,-0.14,1.25,-0.43,1.88c-0.45,0.98,-1.18,2.03,-2.19,3.13c-1.51,1.65,-2.46,2.65,-2.83,2.99l3.23,0c0.65,0,1.11,-0.02,1.38,-0.07c0.26,-0.04,0.5,-0.14,0.71,-0.29c0.21,-0.14,0.39,-0.36,0.55,-0.63l0.33,0m1.83,5.49l0,-0.4c0.62,-0.2,1.11,-0.52,1.45,-0.96c0.34,-0.43,0.51,-0.89,0.51,-1.38c0,-0.11,-0.02,-0.21,-0.08,-0.29c-0.04,-0.05,-0.08,-0.08,-0.12,-0.08c-0.06,0,-0.21,0.06,-0.43,0.18c-0.1,0.05,-0.22,0.08,-0.34,0.08c-0.29,0,-0.53,-0.08,-0.71,-0.26c-0.17,-0.17,-0.26,-0.42,-0.26,-0.73c0,-0.29,0.11,-0.55,0.34,-0.76c0.22,-0.21,0.5,-0.31,0.83,-0.31c0.4,0,0.75,0.17,1.07,0.52c0.31,0.35,0.47,0.81,0.47,1.39c0,0.62,-0.21,1.2,-0.65,1.74c-0.43,0.53,-1.12,0.96,-2.06,1.27m11.81,-15.49l-0.71,1.55l-3.72,0l-0.81,1.66c1.61,0.23,2.89,0.83,3.83,1.79c0.8,0.82,1.21,1.8,1.21,2.92c0,0.65,-0.13,1.25,-0.39,1.8c-0.26,0.55,-0.59,1.02,-0.99,1.41c-0.4,0.38,-0.84,0.7,-1.34,0.94c-0.7,0.33,-1.41,0.5,-2.15,0.5c-0.74,0,-1.28,-0.12,-1.62,-0.37c-0.33,-0.25,-0.5,-0.53,-0.5,-0.83c0,-0.17,0.07,-0.32,0.21,-0.45c0.14,-0.13,0.31,-0.19,0.52,-0.19c0.15,0,0.29,0.02,0.41,0.07c0.11,0.04,0.32,0.17,0.6,0.37c0.45,0.31,0.91,0.47,1.38,0.47c0.71,0,1.33,-0.26,1.87,-0.8c0.53,-0.53,0.8,-1.19,0.8,-1.96c0,-0.74,-0.24,-1.44,-0.72,-2.09c-0.48,-0.64,-1.14,-1.14,-1.99,-1.5c-0.66,-0.27,-1.56,-0.43,-2.71,-0.47l2.37,-4.81l4.43,0" fill="#000000" stroke="none" fill-opacity="1"/>
<path d="m57.96,298.64l-0.71,1.55l-3.72,0l-0.81,1.66c1.61,0.23,2.89,0.83,3.83,1.79c0.8,0.82,1.21,1.8,1.21,2.92c0,0.65,-0.13,1.25,-0.39,1.8c-0.26,0.55,-0.59,1.02,-0.99,1.41c-0.4,0.38,-0.84,0.7,-1.34,0.94c-0.7,0.33,-1.41,0.5,-2.15,0.5c-0.74,0,-1.28,-0.12,-1.62,-0.37c-0.33,-0.25,-0.5,-0.53,-0.5,-0.83c0,-0.17,0.07,-0.32,0.21,-0.45c0.14,-0.13,0.31,-0.19,0.52,-0.19c0.15,0,0.29,0.02,0.41,0.07c0.11,0.04,0.32,0.17,0.6,0.37c0.45,0.31,0.91,0.47,1.38,0.47c0.71,0,1.33,-0.26,1.87,-0.8c0.53,-0.53,0.8,-1.19,0.8,-1.96c0,-0.74,-0.24,-1.44,-0.72,-2.09c-0.48,-0.64,-1.14,-1.14,-1.99,-1.5c-0.66,-0.27,-1.56,-0.43,-2.71,-0.47l2.37,-4.81l4.43,0" fill="#000000" stroke="none" fill-opacity="1"/>
<path d="m37.63,199.62l6.63,0l0,0.34l-4.12,12.29l-1.02,0l3.69,-11.14l-3.4,0c-0.68,0,-1.17,0.08,-1.47,0.24c-0.51,0.28,-0.92,0.71,-1.23,1.29l-0.26,-0.1l1.18,-2.93m8.52,15.49l0,-0.4c0.62,-0.2,1.11,-0.52,1.45,-0.96c0.34,-0.43,0.51,-0.89,0.51,-1.38c0,-0.11,-0.02,-0.21,-0.08,-0.29c-0.04,-0.05,-0.08,-0.08,-0.12,-0.08c-0.06,0,-0.21,0.06,-0.43,0.18c-0.1,0.05,-0.22,0.08,-0.34,0.08c-0.29,0,-0.53,-0.08,-0.71,-0.26c-0.17,-0.17,-0.26,-0.42,-0.26,-0.73c0,-0.29,0.11,-0.55,0.34,-0.76c0.22,-0.21,0.5,-0.31,0.83,-0.31c0.4,0,0.75,0.17,1.07,0.52c0.31,0.35,0.47,0.81,0.47,1.39c0,0.62,-0.21,1.2,-0.65,1.74c-0.43,0.53,-1.12,0.96,-2.06,1.27m11.81,-15.49l-0.71,1.55l-3.72,0l-0.81,1.66c1.61,0.23,2.89,0.83,3.83,1.79c0.8,0.82,1.21,1.8,1.21,2.92c0,0.65,-0.13,1.25,-0.39,1.8c-0.26,0.55,-0.59,1.02,-0.99,1.41c-0.4,0.38,-0.84,0.7,-1.34,0.94c-0.7,0.33,-1.41,0.5,-2.15,0.5c-0.74,0,-1.28,-0.12,-1.62,-0.37c-0.33,-0.25,-0.5,-0.53,-0.5,-0.83c0,-0.17,0.07,-0.32,0.21,-0.45c0.14,-0.13,0.31,-0.19,0.52,-0.19c0.15,0,0.29,0.02,0.41,0.07c0.11,0.04,0.32,0.17,0.6,0.37c0.45,0.31,0.91,0.47,1.38,0.47c0.71,0,1.33,-0.26,1.87,-0.8c0.53,-0.53,0.8,-1.19,0.8,-1.96c0,-0.74,-0.24,-1.44,-0.72,-2.09c-0.48,-0.64,-1.14,-1.14,-1.99,-1.5c-0.66,-0.27,-1.56,-0.43,-2.71,-0.47l2.37,-4.81l4.43,0" fill="#000000" stroke="none" fill-opacity="1"/>
<path d="m42.64,101.81l3.01,-1.47l0.3,0l0,10.45c0,0.69,0.02,1.12,0.08,1.29c0.05,0.17,0.17,0.3,0.36,0.39c0.18,0.09,0.55,0.14,1.11,0.15l0,0.33l-4.65,0l0,-0.33c0.58,-0.01,0.96,-0.06,1.13,-0.15c0.17,-0.08,0.28,-0.2,0.35,-0.35c0.06,-0.14,0.1,-0.59,0.1,-1.33l0,-6.68c0,-0.9,-0.03,-1.47,-0.09,-1.73c-0.04,-0.19,-0.12,-0.33,-0.23,-0.42c-0.11,-0.09,-0.24,-0.13,-0.4,-0.13c-0.22,0,-0.53,0.09,-0.94,0.28l-0.13,-0.28m7.88,5.04c0,-1.41,0.21,-2.62,0.63,-3.64c0.42,-1.01,0.99,-1.77,1.69,-2.27c0.54,-0.39,1.11,-0.59,1.69,-0.59c0.94,0,1.8,0.48,2.55,1.45c0.94,1.19,1.41,2.82,1.41,4.87c0,1.43,-0.2,2.65,-0.62,3.66c-0.41,1,-0.94,1.73,-1.58,2.18c-0.64,0.45,-1.26,0.68,-1.85,0.68c-1.18,0,-2.16,-0.69,-2.94,-2.09c-0.66,-1.17,-0.99,-2.59,-0.99,-4.24m1.78,0.22c0,1.7,0.21,3.09,0.63,4.17c0.34,0.9,0.86,1.36,1.55,1.36c0.32,0,0.66,-0.14,1.02,-0.44c0.35,-0.29,0.62,-0.78,0.8,-1.48c0.28,-1.04,0.42,-2.52,0.42,-4.42c0,-1.41,-0.14,-2.59,-0.43,-3.53c-0.21,-0.7,-0.5,-1.19,-0.84,-1.48c-0.24,-0.2,-0.55,-0.3,-0.9,-0.3c-0.41,0,-0.78,0.18,-1.1,0.55c-0.43,0.5,-0.73,1.29,-0.89,2.38c-0.15,1.08,-0.23,2.15,-0.23,3.2" fill="#000000" stroke="none" fill-opacity="1"/>
<path d="m28.54,5.81l3.01,-1.47l0.3,0l0,10.45c0,0.69,0.02,1.12,0.08,1.29c0.05,0.17,0.17,0.3,0.36,0.39c0.18,0.09,0.55,0.14,1.11,0.15l0,0.33l-4.65,0l0,-0.33c0.58,-0.01,0.96,-0.06,1.13,-0.15c0.17,-0.08,0.28,-0.2,0.35,-0.35c0.06,-0.14,0.1,-0.59,0.1,-1.33l0,-6.68c0,-0.9,-0.03,-1.47,-0.09,-1.73c-0.04,-0.19,-0.12,-0.33,-0.23,-0.42c-0.11,-0.09,-0.24,-0.13,-0.4,-0.13c-0.22,0,-0.53,0.09,-0.94,0.28l-0.13,-0.28m15.78,8.78l-0.86,2.38l-7.3,0l0,-0.33c2.14,-1.96,3.66,-3.56,4.53,-4.8c0.87,-1.24,1.31,-2.37,1.31,-3.4c0,-0.78,-0.24,-1.43,-0.72,-1.93c-0.48,-0.5,-1.05,-0.75,-1.72,-0.75c-0.6,0,-1.15,0.17,-1.63,0.53c-0.48,0.35,-0.84,0.87,-1.07,1.56l-0.33,0c0.15,-1.12,0.54,-1.99,1.17,-2.59c0.63,-0.6,1.41,-0.9,2.36,-0.9c1,0,1.84,0.32,2.51,0.96c0.67,0.64,1,1.4,1,2.28c0,0.62,-0.14,1.25,-0.43,1.88c-0.45,0.98,-1.18,2.03,-2.19,3.13c-1.51,1.65,-2.46,2.65,-2.83,2.99l3.23,0c0.65,0,1.11,-0.02,1.38,-0.07c0.26,-0.04,0.5,-0.14,0.71,-0.29c0.21,-0.14,0.39,-0.36,0.55,-0.63l0.33,0m1.83,5.49l0,-0.4c0.62,-0.2,1.11,-0.52,1.45,-0.96c0.34,-0.43,0.51,-0.89,0.51,-1.38c0,-0.11,-0.02,-0.21,-0.08,-0.29c-0.04,-0.05,-0.08,-0.08,-0.12,-0.08c-0.06,0,-0.21,0.06,-0.43,0.18c-0.1,0.05,-0.22,0.08,-0.34,0.08c-0.29,0,-0.53,-0.08,-0.71,-0.26c-0.17,-0.17,-0.26,-0.42,-0.26,-0.73c0,-0.29,0.11,-0.55,0.34,-0.76c0.22,-0.21,0.5,-0.31,0.83,-0.31c0.4,0,0.75,0.17,1.07,0.52c0.31,0.35,0.47,0.81,0.47,1.39c0,0.62,-0.21,1.2,-0.65,1.74c-0.43,0.53,-1.12,0.96,-2.06,1.27m11.81,-15.49l-0.71,1.55l-3.72,0l-0.81,1.66c1.61,0.23,2.89,0.83,3.83,1.79c0.8,0.82,1.21,1.8,1.21,2.92c0,0.65,-0.13,1.25,-0.39,1.8c-0.26,0.55,-0.59,1.02,-0.99,1.41c-0.4,0.38,-0.84,0.7,-1.34,0.94c-0.7,0.33,-1.41,0.5,-2.15,0.5c-0.74,0,-1.28,-0.12,-1.62,-0.37c-0.33,-0.25,-0.5,-0.53,-0.5,-0.83c0,-0.17,0.07,-0.32,0.21,-0.45c0.14,-0.13,0.31,-0.19,0.52,-0.19c0.15,0,0.29,0.02,0.41,0.07c0.11,0.04,0.32,0.17,0.6,0.37c0.45,0.31,0.91,0.47,1.38,0.47c0.71,0,1.33,-0.26,1.87,-0.8c0.53,-0.53,0.8,-1.19,0.8,-1.96c0,-0.74,-0.24,-1.44,-0.72,-2.09c-0.48,-0.64,-1.14,-1.14,-1.99,-1.5c-0.66,-0.27,-1.56,-0.43,-2.71,-0.47l2.37,-4.81l4.43,0" fill="#000000" stroke="none" fill-opacity="1"/>
</g>
<g fill="none" stroke-linecap="butt" stroke-width="0.66">
<path d="M64.25,502.67l495.11,0"/>
<path d="M64.25,502.67l0,-4M89,502.67l0,-4M113.76,502.67l0,-4M138.51,502.67l0,-4M163.27,502.67l0,-4M188.03,502.67l0,-4M212.78,502.67l0,-4M237.54,502.67l0,-4M262.29,502.67l0,-4M287.05,502.67l0,-4M311.81,502.67l0,-4M336.56,502.67l0,-4M361.32,502.67l0,-4M386.07,502.67l0,-4M410.83,502.67l0,-4M435.59,502.67l0,-4M460.34,502.67l0,-4M485.1,502.67l0,-4M509.85,502.67l0,-4M534.61,502.67l0,-4M559.37,502.67l0,-4"/>
<path d="M64.25,502.67l0,-8M163.27,502.67l0,-8M262.29,502.67l0,-8M361.32,502.67l0,-8M460.34,502.67l0,-8M559.37,502.67l0,-8"/>
</g>
<g fill="none" stroke-width="0.1">
<path d="m60.22,518.25c0,-1.41,0.21,-2.62,0.63,-3.64c0.42,-1.01,0.99,-1.77,1.69,-2.27c0.54,-0.39,1.11,-0.59,1.69,-0.59c0.94,0,1.8,0.48,2.55,1.45c0.94,1.19,1.41,2.82,1.41,4.87c0,1.43,-0.2,2.65,-0.62,3.66c-0.41,1,-0.94,1.73,-1.58,2.18c-0.64,0.45,-1.26,0.68,-1.85,0.68c-1.18,0,-2.16,-0.69,-2.94,-2.09c-0.66,-1.17,-0.99,-2.59,-0.99,-4.24m1.78,0.22c0,1.7,0.21,3.09,0.63,4.17c0.34,0.9,0.86,1.36,1.55,1.36c0.32,0,0.66,-0.14,1.02,-0.44c0.35,-0.29,0.62,-0.78,0.8,-1.48c0.28,-1.04,0.42,-2.52,0.42,-4.42c0,-1.41,-0.14,-2.59,-0.43,-3.53c-0.21,-0.7,-0.5,-1.19,-0.84,-1.48c-0.24,-0.2,-0.55,-0.3,-0.9,-0.3c-0.41,0,-0.78,0.18,-1.1,0.55c-0.43,0.5,-0.73,1.29,-0.89,2.38c-0.15,1.08,-0.23,2.15,-0.23,3.2" fill="#000000" stroke="none" fill-opacity="1"/>
<path d="m167.14,521.99l-0.86,2.38l-7.3,0l0,-0.33c2.14,-1.96,3.66,-3.56,4.53,-4.8c0.87,-1.24,1.31,-2.37,1.31,-3.4c0,-0.78,-0.24,-1.43,-0.72,-1.93c-0.48,-0.5,-1.05,-0.75,-1.72,-0.75c-0.6,0,-1.15,0.17,-1.63,0.53c-0.48,0.35,-0.84,0.87,-1.07,1.56l-0.33,0c0.15,-1.12,0.54,-1.99,1.17,-2.59c0.63,-0.6,1.41,-0.9,2.36,-0.9c1,0,1.84,0.32,2.51,0.96c0.67,0.64,1,1.4,1,2.28c0,0.62,-0.14,1.25,-0.43,1.88c-0.45,0.98,-1.18,2.03,-2.19,3.13c-1.51,1.65,-2.46,2.65,-2.83,2.99l3.23,0c0.65,0,1.11,-0.02,1.38,-0.07c0.26,-0.04,0.5,-0.14,0.71,-0.29c0.21,-0.14,0.39,-0.36,0.55,-0.63l0.33,0" fill="#000000" stroke="none" fill-opacity="1"/>
<path d="m266.3,519.81l0,1.29l-1.66,0l0,3.26l-1.5,0l0,-3.26l-5.24,0l0,-1.16l5.74,-8.19l1,0l0,8.07l1.66,0m-3.16,0l0,-6.14l-4.34,6.14l4.34,0" fill="#000000" stroke="none" fill-opacity="1"/>
<path d="m365,511.73l0,0.33c-0.8,0.07,-1.45,0.23,-1.96,0.47c-0.5,0.24,-1.01,0.6,-1.5,1.1c-0.49,0.49,-0.9,1.04,-1.23,1.64c-0.32,0.6,-0.59,1.32,-0.81,2.15c0.87,-0.6,1.75,-0.9,2.63,-0.9c0.84,0,1.57,0.34,2.2,1.02c0.62,0.68,0.93,1.55,0.93,2.62c0,1.03,-0.31,1.97,-0.94,2.83c-0.75,1.03,-1.75,1.55,-2.99,1.55c-0.84,0,-1.56,-0.28,-2.15,-0.84c-1.15,-1.08,-1.73,-2.5,-1.73,-4.23c0,-1.1,0.22,-2.16,0.66,-3.15c0.44,-0.99,1.07,-1.88,1.9,-2.65c0.82,-0.77,1.61,-1.29,2.36,-1.56c0.75,-0.26,1.45,-0.4,2.1,-0.4l0.52,0m-5.67,6.39c-0.1,0.82,-0.16,1.48,-0.16,1.99c0,0.58,0.1,1.21,0.32,1.9c0.21,0.68,0.53,1.22,0.96,1.62c0.31,0.28,0.68,0.42,1.13,0.42c0.52,0,1,-0.24,1.41,-0.74c0.41,-0.49,0.62,-1.21,0.62,-2.13c0,-1.04,-0.2,-1.94,-0.62,-2.7c-0.41,-0.76,-1,-1.14,-1.76,-1.14c-0.23,0,-0.47,0.04,-0.74,0.14c-0.26,0.09,-0.65,0.3,-1.17,0.63" fill="#000000" stroke="none" fill-opacity="1"/>
<path d="m459.23,518.14c-0.98,-0.8,-1.61,-1.44,-1.89,-1.93c-0.28,-0.48,-0.42,-0.99,-0.42,-1.51c0,-0.8,0.31,-1.49,0.93,-2.07c0.62,-0.58,1.44,-0.87,2.47,-0.87c0.99,0,1.8,0.27,2.41,0.81c0.6,0.54,0.91,1.15,0.91,1.85c0,0.46,-0.16,0.93,-0.49,1.41c-0.32,0.48,-1.01,1.04,-2.05,1.69c1.07,0.82,1.78,1.47,2.12,1.95c0.46,0.62,0.69,1.27,0.69,1.96c0,0.87,-0.33,1.61,-0.99,2.23c-0.66,0.61,-1.53,0.92,-2.61,0.92c-1.17,0,-2.09,-0.36,-2.74,-1.1c-0.52,-0.59,-0.78,-1.23,-0.78,-1.93c0,-0.54,0.18,-1.09,0.55,-1.62c0.36,-0.53,1,-1.13,1.9,-1.78m1.43,-0.97c0.73,-0.65,1.19,-1.17,1.38,-1.55c0.19,-0.38,0.29,-0.81,0.29,-1.29c0,-0.63,-0.17,-1.13,-0.53,-1.5c-0.35,-0.36,-0.84,-0.54,-1.47,-0.54c-0.62,0,-1.12,0.17,-1.51,0.53c-0.38,0.35,-0.58,0.77,-0.58,1.26c0,0.31,0.08,0.63,0.24,0.94c0.16,0.31,0.39,0.61,0.68,0.9l1.49,1.24m-1,1.32c-0.5,0.42,-0.87,0.89,-1.12,1.39c-0.24,0.5,-0.36,1.04,-0.36,1.62c0,0.78,0.21,1.41,0.64,1.88c0.42,0.47,0.97,0.7,1.63,0.7c0.65,0,1.18,-0.18,1.57,-0.55c0.39,-0.37,0.59,-0.82,0.59,-1.35c0,-0.43,-0.11,-0.83,-0.34,-1.17c-0.43,-0.64,-1.3,-1.48,-2.62,-2.52" fill="#000000" stroke="none" fill-opacity="1"/>
<path d="m550.31,513.2l3.01,-1.47l0.3,0l0,10.45c0,0.69,0.02,1.12,0.08,1.29c0.05,0.17,0.17,0.3,0.36,0.39c0.18,0.09,0.55,0.14,1.11,0.15l0,0.33l-4.65,0l0,-0.33c0.58,-0.01,0.96,-0.06,1.13,-0.15c0.17,-0.08,0.28,-0.2,0.35,-0.35c0.06,-0.14,0.1,-0.59,0.1,-1.33l0,-6.68c0,-0.9,-0.03,-1.47,-0.09,-1.73c-0.04,-0.19,-0.12,-0.33,-0.23,-0.42c-0.11,-0.09,-0.24,-0.13,-0.4,-0.13c-0.22,0,-0.53,0.09,-0.94,0.28l-0.13,-0.28m7.88,5.04c0,-1.41,0.21,-2.62,0.63,-3.64c0.42,-1.01,0.99,-1.77,1.69,-2.27c0.54,-0.39,1.11,-0.59,1.69,-0.59c0.94,0,1.8,0.48,2.55,1.45c0.94,1.19,1.41,2.82,1.41,4.87c0,1.43,-0.2,2.65,-0.62,3.66c-0.41,1,-0.94,1.73,-1.58,2.18c-0.64,0.45,-1.26,0.68,-1.85,0.68c-1.18,0,-2.16,-0.69,-2.94,-2.09c-0.66,-1.17,-0.99,-2.59,-0.99,-4.24m1.78,0.22c0,1.7,0.21,3.09,0.63,4.17c0.34,0.9,0.86,1.36,1.55,1.36c0.32,0,0.66,-0.14,1.02,-0.44c0.35,-0.29,0.62,-0.78,0.8,-1.48c0.28,-1.04,0.42,-2.52,0.42,-4.42c0,-1.41,-0.14,-2.59,-0.43,-3.53c-0.21,-0.7,-0.5,-1.19,-0.84,-1.48c-0.24,-0.2,-0.55,-0.3,-0.9,-0.3c-0.41,0,-0.78,0.18,-1.1,0.55c-0.43,0.5,-0.73,1.29,-0.89,2.38c-0.15,1.08,-0.23,2.15,-0.23,3.2" fill="#000000" stroke="none" fill-opacity="1"/>
</g>
<g fill="none" stroke-linecap="butt" stroke-width="0.66">
<path d="M559.37,502.67l0,-495.11"/>
<path d="M559.37,502.67l-4,0M559.37,482.87l-4,0M559.37,463.06l-4,0M559.37,443.26l-4,0M559.37,423.45l-4,0M559.37,403.65l-4,0M559.37,383.84l-4,0M559.37,364.04l-4,0M559.37,344.23l-4,0M559.37,324.43l-4,0M559.37,304.62l-4,0M559.37,284.82l-4,0M559.37,265.02l-4,0M559.37,245.21l-4,0M559.37,225.41l-4,0M559.37,205.6l-4,0M559.37,185.8l-4,0M559.37,165.99l-4,0M559.37,146.19l-4,0M559.37,126.38l-4,0M559.37,106.58l-4,0M559.37,86.77l-4,0M559.37,66.97l-4,0M559.37,47.16l-4,0M559.37,27.36l-4,0M559.37,7.55l-4,0"/>
<path d="M559.37,502.67l-8,0M559.37,403.65l-8,0M559.37,304.62l-8,0M559.37,205.6l-8,0M559.37,106.58l-8,0M559.37,7.55l-8,0"/>
<path d="M64.25,7.55l495.11,0"/>
<path d="M64.25,7.55l0,4M89,7.55l0,4M113.76,7.55l0,4M138.51,7.55l0,4M163.27,7.55l0,4M188.03,7.55l0,4M212.78,7.55l0,4M237.54,7.55l0,4M262.29,7.55l0,4M287.05,7.55l0,4M311.81,7.55l0,4M336.56,7.55l0,4M361.32,7.55l0,4M386.07,7.55l0,4M410.83,7.55l0,4M435.59,7.55l0,4M460.34,7.55l0,4M485.1,7.55l0,4M509.85,7.55l0,4M534.61,7.55l0,4M559.37,7.55l0,4"/>
<path d="M64.25,7.55l0,8M163.27,7.55l0,8M262.29,7.55l0,8M361.32,7.55l0,8M460.34,7.55l0,8M559.37,7.55l0,8"/>
</g>
</g>
</g>
</svg>
